<svg width="919" height="919" viewBox="0 0 919 919" fill="none" xmlns="http://www.w3.org/2000/svg">
<g clip-path="url(#clip0_1706_14)">
<path d="M0 228.317C0 102.221 102.221 0 228.317 0H690.683C816.779 0 919 102.221 919 228.317V690.683C919 816.779 816.779 919 690.683 919H228.317C102.221 919 0 816.779 0 690.683V228.317Z" fill="#121212"/>
<path d="M281 356.25C241.276 356.25 214.792 342.95 214.792 323H167.5C167.5 368.6 212.9 399 281 399C354.776 399 394.5 371.925 394.5 321.575C394.5 273.125 361.396 251.75 283.365 251.75C238.438 251.75 219.521 244.624 219.521 226.575C219.521 205.676 240.803 194.75 281 194.75C317.888 194.75 342.479 208.05 342.479 228H389.772C389.772 182.4 346.263 152 281 152C210.062 152 172.228 178.125 172.228 226.575C172.228 274.551 204.388 294.501 279.108 294.501C326.4 294.501 347.209 302.575 347.209 321.575C347.209 343.901 324.035 356.25 281 356.25Z" fill="#DDDDDD"/>
<path d="M563.874 253.27V196.461H751.5V152H514.5V399H563.874V297.73H702.124V253.27H563.874Z" fill="#DDDDDD"/>
<path d="M238.81 600.589C238.81 581.776 254.681 566.824 284.5 566.824C314.319 566.824 330.19 576.952 330.19 595.764C330.19 609.753 319.128 617.953 281.133 632.906C218.609 657.506 183.5 693.682 183.5 733.235V767H385.5V723.587H238.81C238.81 705.258 263.338 688.376 299.409 674.388C359.529 650.753 380.69 630.494 380.69 595.764C380.69 549.94 343.658 521 284.5 521C222.458 521 188.31 552.353 188.31 600.589H238.81Z" fill="#DDDDDD"/>
<path d="M735.5 673.52V717.8H691.063V767H642.23V717.8H505.5V678.44L647.114 521H691.063V673.52H735.5ZM642.23 590.372L567.517 673.52H642.23V590.372Z" fill="#DDDDDD"/>
</g>
<defs>
<clipPath id="clip0_1706_14">
<rect width="919" height="919" fill="white"/>
</clipPath>
</defs>
</svg>
