<svg width="35" height="24" viewBox="0 0 35 24" fill="none" xmlns="http://www.w3.org/2000/svg">
<path d="M28.6167 0H6.32333C3.258 0 0.75 2.4 0.75 5.33333V18.6667C0.75 21.6 3.258 24 6.32333 24H28.6167C31.682 24 34.19 21.6 34.19 18.6667V5.33333C34.19 2.4 31.682 0 28.6167 0ZM30.846 7.73333L19.8387 14.8C19.142 15.2 18.306 15.4667 17.47 15.4667C16.634 15.4667 15.798 15.2 15.1013 14.8L4.094 7.73333C3.53667 7.33333 3.39733 6.53333 3.81533 5.86667C4.23333 5.33333 5.06933 5.2 5.766 5.6L16.7733 12.6667C17.1913 12.9333 17.888 12.9333 18.306 12.6667L29.3133 5.6C30.01 5.2 30.846 5.33333 31.264 6C31.5427 6.53333 31.4033 7.33333 30.846 7.73333Z" fill="currentColor"/>
</svg>
