<svg width="34" height="32" viewBox="0 0 34 32" fill="none" xmlns="http://www.w3.org/2000/svg">
<path fill-rule="evenodd" clip-rule="evenodd" d="M16.72 0C7.48668 0 0 7.34286 0 16.4071C0 23.6571 4.79207 29.8 11.4353 31.9714C12.2713 32.1214 12.5773 31.6143 12.5773 31.1786C12.5773 30.7857 12.5624 29.7571 12.5549 28.3857C7.90468 29.3786 6.91939 26.1857 6.91939 26.1857C6.15804 24.2929 5.06079 23.7857 5.06079 23.7857C3.54554 22.7643 5.17275 22.7857 5.17275 22.7857C6.85221 22.9 7.733 24.4786 7.733 24.4786C9.22586 26.9857 11.6443 26.2643 12.5997 25.8429C12.749 24.7857 13.1819 24.0571 13.6596 23.65C9.94989 23.2357 6.04607 21.8286 6.04607 15.5429C6.04607 13.75 6.69546 12.2857 7.76286 11.1429C7.59118 10.7286 7.01643 9.05714 7.92707 6.8C7.92707 6.8 9.33036 6.35714 12.5251 8.47857C13.8612 8.11429 15.2869 7.93571 16.7125 7.92857C18.1307 7.93571 19.5639 8.11429 20.9 8.47857C24.0947 6.35714 25.4905 6.8 25.4905 6.8C26.4012 9.05714 25.8264 10.7286 25.6547 11.1429C26.7221 12.2929 27.3715 13.7571 27.3715 15.5429C27.3715 21.8429 23.4602 23.2286 19.7356 23.6357C20.3327 24.1429 20.8701 25.1429 20.8701 26.6714C20.8701 28.8643 20.8477 30.6357 20.8477 31.1714C20.8477 31.6071 21.1463 32.1214 21.9972 31.9571C28.6554 29.7929 33.44 23.65 33.44 16.4071C33.44 7.34286 25.9533 0 16.72 0Z" fill="currentColor"/>
</svg>
