<svg width="34" height="27" viewBox="0 0 34 27" fill="none" xmlns="http://www.w3.org/2000/svg">
<path d="M33.815 3.07881C32.5857 3.6018 31.2627 3.95458 29.8745 4.11245C31.2919 3.30035 32.3786 2.014 32.8911 0.479461C31.5654 1.23244 30.0979 1.77881 28.5346 2.07377C27.2835 0.797802 25.5003 0 23.527 0C19.7386 0 16.667 2.93978 16.667 6.56628C16.667 7.08017 16.7274 7.58107 16.8449 8.06248C11.1429 7.78832 6.08715 5.17467 2.7033 1.2019C2.11274 2.17122 1.7747 3.29905 1.7747 4.50355C1.7747 6.78132 2.98569 8.79142 4.82661 9.96863C3.7025 9.9342 2.64425 9.63859 1.71903 9.14679C1.71836 9.17408 1.71836 9.20201 1.71836 9.22995C1.71836 12.4108 4.08331 15.064 7.22211 15.6682C6.64648 15.8177 6.04031 15.8982 5.41445 15.8982C4.97187 15.8982 4.54219 15.8573 4.12336 15.78C4.99699 18.3884 7.53029 20.2874 10.532 20.3401C8.18398 22.1013 5.22642 23.1512 2.0116 23.1512C1.45837 23.1512 0.911935 23.12 0.375 23.059C3.41198 24.9229 7.01779 26.0091 10.8917 26.0091C23.5114 26.0091 30.4115 16.0041 30.4115 7.32705C30.4115 7.04249 30.4054 6.75858 30.3925 6.47662C31.7324 5.55278 32.8959 4.39571 33.815 3.07881Z" fill="currentColor"/>
</svg>
