<svg width="962" height="962" viewBox="0 0 962 962" fill="none" xmlns="http://www.w3.org/2000/svg">
<rect width="962" height="962" rx="239" fill="#121212"/>
<path d="M361.738 358.944L361.062 357.137L360.775 359.044C356.939 384.509 352.666 402.463 339.279 427.923C350.28 397.221 353.257 377.984 355.478 363.634C355.896 360.932 356.287 358.403 356.7 356.004C357.647 351.278 356.222 345.67 354.372 341.067L354.369 341.058C340.568 308.536 327.705 276.055 321.275 241.299L321.275 241.299L321.273 241.287C319.224 231.497 319.476 218.856 319.551 215.11C319.56 214.674 319.566 214.359 319.566 214.182C319.566 213.403 319.871 211.087 320.302 208.699C320.515 207.515 320.757 206.329 321.001 205.33C321.249 204.314 321.489 203.536 321.69 203.135L321.694 203.128L321.697 203.121C323.079 200.14 324.546 197.23 326.556 195.062C328.539 192.923 331.046 191.51 334.546 191.5C339.698 192.32 341.801 193.167 343.02 194.707C343.639 195.491 344.059 196.49 344.498 197.863C344.686 198.452 344.875 199.098 345.085 199.819C345.12 199.936 345.154 200.056 345.19 200.177C345.44 201.034 345.722 201.984 346.063 203.039L346.064 203.044L346.084 203.139L346.161 203.51C346.228 203.836 346.327 204.316 346.454 204.932C346.707 206.163 347.071 207.937 347.511 210.106C348.392 214.443 349.582 220.362 350.816 226.685C353.286 239.342 355.926 253.587 356.632 260.042C358.821 280.068 359.636 290.655 360.472 301.52C360.898 307.056 361.33 312.664 361.951 319.629L361.958 319.705L361.987 319.775C367.74 333.751 374.462 349.364 381.182 364.972L381.183 364.974C387.904 380.584 394.624 396.19 400.373 410.157L400.633 410.791L401.157 410.349C405.387 406.786 409.624 403.331 413.823 399.907C421.474 393.669 429.001 387.532 436.133 381.022C462.841 357.638 486.811 331.482 503.411 300.26L503.411 300.26L503.417 300.25C505.496 296.109 507.227 291.857 508.95 287.626L508.954 287.616C510.68 283.376 512.398 279.157 514.458 275.055L514.463 275.045L514.468 275.034C516.276 270.984 519.431 266.958 523.453 264.733C539.431 256.097 555.797 254.756 571.713 264.26C573.104 265.183 574.432 266.068 575.307 266.939L575.365 266.996L575.437 267.032C576.118 267.371 576.506 268.024 576.931 268.857C574.824 272.432 572.682 275.978 570.542 279.521C564.794 289.037 559.059 298.531 554.054 308.498C531.927 349.353 516.276 419.77 512.593 466.072L512.55 466.612H513.091C513.42 466.612 513.75 466.612 514.082 466.612C527.568 466.615 543.898 466.619 571.711 461.421C569.068 462.349 565.85 463.295 562.283 464.23C556.279 465.804 549.326 467.34 542.547 468.71C528.985 471.452 516.144 473.527 513.027 473.928L512.578 473.986L512.591 474.438C513.973 521.678 525.026 576.837 541.607 621.321C546.213 633.705 551.741 646.089 557.729 657.557C560.522 663.577 565.164 668.661 569.742 673.675L569.77 673.706L569.773 673.709C575.35 679.725 581.604 683.29 588.171 683.842C594.746 684.394 601.547 681.918 608.196 676.034C625.508 660.711 633.354 648.943 640.084 638.847C640.513 638.202 640.939 637.565 641.362 636.933C635.408 714.594 609.66 755.662 603.788 763.308L603.787 763.309C600.173 768.031 595.973 770.329 591.751 770.491C587.523 770.653 583.167 768.678 579.239 764.638C568.853 753.957 537.599 710.368 514.041 597.224C506.225 559.684 500.248 514.56 499.329 476.116L499.317 475.628H498.829H498.444C480.986 475.629 475.252 475.629 459.366 473.318C446.224 471.407 438.721 469.035 435.587 467.252L435.58 467.247L435.572 467.243C431.285 464.997 428.644 462 427.713 458.621C426.785 455.249 427.531 451.394 430.227 447.362C435.725 440.064 442.134 433.229 448.993 427.765L448.999 427.761L449.005 427.756C455.311 422.418 462.039 417.737 468.924 412.946C469.698 412.408 470.473 411.869 471.25 411.327C471.073 411.495 470.893 411.667 470.712 411.841C466.653 415.741 461.551 421.077 457.409 426.801C453.28 432.507 450.046 438.676 449.834 444.232C449.727 447.027 450.385 449.674 452.08 452.013C453.77 454.344 456.462 456.331 460.359 457.864L460.362 457.865L460.401 457.883C460.436 457.899 460.488 457.922 460.556 457.951C460.692 458.011 460.893 458.098 461.156 458.208C461.682 458.429 462.454 458.743 463.446 459.12C465.428 459.873 468.285 460.877 471.79 461.88C478.8 463.887 488.417 465.896 498.829 465.896H499.316L499.329 465.409C500.176 434.332 504.134 405.286 508.049 376.555C510.046 361.898 512.032 347.323 513.588 332.602L513.742 331.15L512.731 332.203C482.848 363.331 448.365 393.088 413.421 418.726L413.418 418.728C410.632 420.809 408.909 422.726 408.289 425.01C407.668 427.295 408.183 429.831 409.577 433.069C409.934 433.899 411.544 437.339 414.071 442.741C419.929 455.262 430.717 478.321 442.275 503.851C458.827 540.414 476.964 582.058 484.544 605.245C485.399 609.131 483.22 613.293 480.991 615.512C479.934 616.565 477.737 617.626 475.308 618.191C472.895 618.753 470.41 618.788 468.726 617.969C459.409 611.058 444.267 600.209 427.948 588.517C403.072 570.694 375.46 550.911 361.576 540.128L361.574 540.126C351.499 532.375 342.852 522.84 339.211 510.165C336.486 497.937 338.754 486.601 343.784 475.218L343.786 475.213C352.025 456.072 365.764 441.013 380.926 427.289C383.04 425.417 384.272 423.612 384.704 421.581C385.135 419.557 384.756 417.391 383.822 414.834L383.817 414.82L383.811 414.805C375.996 396.954 369.099 378.643 361.738 358.944ZM434.138 567.534L434.877 567.87L434.844 567.059C433.921 543.848 427.478 521.461 419.207 499.797C415.071 488.964 410.476 478.306 405.882 467.813C405.176 466.201 404.47 464.593 403.766 462.988C399.887 454.148 396.059 445.426 392.557 436.806L392.269 436.097L391.735 436.646C377.925 450.855 366.351 464.668 360.793 482.194L360.79 482.202L360.788 482.209C356.622 496.958 357.513 512.308 369.213 523.026L369.216 523.028C383.959 536.332 414.574 558.644 434.138 567.534ZM342.421 215.58L342.117 214.656L341.543 215.442C339.62 218.074 338.403 222.439 337.935 228.142C337.464 233.863 337.742 240.999 338.867 249.234C341.118 265.707 346.768 286.627 356.67 309.515L357.627 309.28C356.708 296.603 351.645 243.591 342.421 215.58Z" fill="white" stroke="black"/>
</svg>
