<svg width="369" height="91" viewBox="0 0 369 91" fill="none" xmlns="http://www.w3.org/2000/svg">
<path d="M347.968 1.28003H368.32V2.04803C361.536 2.68803 355.904 11.904 349.12 25.344L339.904 43.136C334.784 54.4 319.296 59.648 319.296 65.152C319.296 66.048 319.808 66.304 320.32 66.304C326.336 66.304 337.6 48.64 345.792 48.64C347.84 48.768 349.504 50.432 349.504 52.48C349.504 58.752 336.448 61.952 336.448 75.52C336.448 84.608 336.96 90.112 345.28 90.112V90.88H316.736V90.112C325.056 90.112 325.568 84.608 325.568 75.52C325.568 65.28 340.16 60.672 340.16 57.344C340.288 56.448 339.648 55.68 338.752 55.552C333.888 55.552 327.872 67.712 320.064 67.712C319.296 67.712 318.528 67.456 318.016 66.816C317.504 66.304 317.248 65.536 317.376 64.768C317.376 61.952 321.984 59.008 326.976 54.912L307.648 17.024C302.016 6.14404 299.584 2.68803 295.872 2.04803V1.28003H323.776V2.04803C316.352 2.56004 314.56 6.78403 318.144 13.696L334.912 47.104C335.936 45.824 336.704 44.544 337.344 43.136L346.816 24.576C353.984 10.368 356.032 3.07203 347.968 2.04803V1.28003Z" fill="currentColor"/>
<path d="M249.995 1.28003C278.027 1.28003 294.155 17.28 294.155 44.928C294.155 73.216 276.235 90.752 249.227 90.752H214.283V90.112C222.603 90.112 223.115 84.48 223.115 75.392C223.243 39.04 245.771 34.304 245.771 27.904C245.899 27.392 245.643 26.88 245.259 26.496C245.003 26.112 244.491 25.984 243.979 25.984C235.659 25.984 227.595 47.616 214.795 47.616C213.259 47.744 211.723 47.232 210.571 46.08C209.419 45.056 208.779 43.52 208.779 41.984C208.779 32.256 223.115 31.744 223.115 16.64C223.115 7.55203 222.603 2.04803 214.283 2.04803V1.28003H249.995ZM249.739 88.832C271.755 88.832 281.995 72.064 281.867 45.696C281.867 20.992 271.499 3.20004 249.099 3.20004H238.603C237.451 3.07203 236.171 3.45603 235.275 4.35204C234.379 5.24803 233.867 6.40003 233.995 7.68003V16.64C233.995 34.56 219.531 37.248 219.531 40.96C219.531 41.984 220.299 42.368 221.067 42.368C226.571 42.368 236.555 23.808 244.107 23.808C245.259 23.68 246.411 24.064 247.179 24.832C248.075 25.6 248.459 26.752 248.459 27.904C248.459 36.992 233.995 36.736 233.995 75.52V81.024C233.995 86.656 237.195 88.832 249.739 88.832Z" fill="currentColor"/>
<path d="M194.392 75.136C197.976 85.376 200.408 89.6 205.528 90.112V90.752H177.496V90.112C184.408 89.6 186.584 85.504 184.024 77.952L180.952 69.376C176.6 59.648 169.176 55.168 162.392 54.912C155.352 54.656 150.488 56.832 146.52 63.872C146.392 64.384 146.136 64.896 146.008 65.408L145.368 67.84C145.24 67.968 145.24 68.096 145.24 68.224C145.112 68.352 145.112 68.352 145.112 68.48C140.632 82.56 140.504 89.344 149.208 90.112V90.752H128.984V90.112C134.872 89.472 138.072 81.92 143.192 67.072L143.832 65.408C149.72 48.896 162.392 40.704 162.392 38.4C162.392 37.632 162.008 37.248 161.24 37.248C158.68 37.248 149.336 54.272 142.808 54.272C141.656 54.272 140.632 53.888 139.864 52.992C139.096 52.224 138.712 51.072 138.84 49.92C138.84 40.192 166.872 21.12 166.872 0H167.896L194.392 75.136ZM162.392 51.968C167.768 52.096 173.016 54.144 176.984 57.728L163.16 18.432C156.632 30.208 146.136 40.832 146.136 45.952C146.136 46.336 146.264 46.72 146.648 47.104C146.904 47.36 147.416 47.488 147.8 47.488C150.488 47.488 157.144 35.584 161.368 35.584C162.136 35.456 162.776 35.712 163.288 36.224C163.672 36.736 163.928 37.376 163.928 38.016C163.928 40.576 154.712 48 149.08 57.984C152.536 54.272 157.4 52.096 162.392 51.968Z" fill="currentColor"/>
<path d="M117.614 74.368C117.614 82.304 120.174 90.112 128.366 90.112V90.752C117.614 90.752 106.606 91.264 106.606 73.856C106.606 59.52 116.718 52.096 116.718 46.848C116.718 46.08 116.206 45.44 115.438 45.44C112.11 45.44 97.5182 57.216 90.3502 57.216C89.7102 57.344 89.0702 57.088 88.5582 56.576C88.0462 56.192 87.7902 55.552 87.7902 54.784C87.7902 45.568 113.262 39.552 113.262 25.6C113.262 12.672 107.118 3.20004 93.2942 3.20004H88.6862C87.4062 3.07203 86.1262 3.45603 85.2302 4.35204C84.3342 5.24803 83.8222 6.40003 83.9502 7.68003V75.392C83.9502 84.48 84.3342 90.112 92.7822 90.112V90.752H64.3662V90.112C72.6862 90.112 73.1982 84.48 73.1982 75.392V16.64C73.1982 7.55203 72.6862 2.04803 64.3662 2.04803V1.28003H94.8302C113.774 1.28003 124.654 10.624 124.654 24.96C124.654 41.984 90.7342 49.024 90.7342 54.784C90.7342 55.296 91.1182 55.68 91.6302 55.68C97.3902 55.68 112.11 42.88 116.974 42.88C119.278 42.88 121.71 43.904 121.71 46.976C121.71 51.712 117.614 63.104 117.614 74.368Z" fill="currentColor"/>
<path d="M60.032 1.28003L61.696 19.712H60.928C54.656 5.76003 50.688 3.20004 37.248 3.20004H19.584V16.64C19.584 31.36 12.544 37.76 12.544 44.16C12.544 44.672 12.8 45.184 13.184 45.568C13.568 45.824 14.208 45.952 14.72 45.952C22.656 45.952 32.256 31.872 43.904 31.872C45.056 31.744 46.208 32 47.104 32.896C47.872 33.664 48.384 34.688 48.256 35.84C48.256 45.44 19.712 37.632 19.584 75.392C19.584 84.48 20.096 90.112 28.544 90.112V90.752H0V90.112C8.32 90.112 8.832 84.608 8.832 75.52C8.832 41.088 45.696 43.264 45.696 35.84C45.696 35.328 45.568 34.944 45.184 34.56C44.8 34.176 44.288 34.048 43.776 34.048C32.256 34.048 22.272 51.328 8.448 51.328C6.784 51.456 5.248 50.944 4.096 49.92C2.944 48.768 2.304 47.232 2.432 45.568C2.432 38.4 8.832 31.488 8.832 16.64C8.832 7.55203 8.32 2.04803 0 2.04803V1.28003H60.032Z" fill="currentColor"/>
</svg>
