<svg width="919" height="919" viewBox="0 0 919 919" fill="none" xmlns="http://www.w3.org/2000/svg">
<path d="M0 228.317C0 102.221 102.221 0 228.317 0H690.683C816.779 0 919 102.221 919 228.317V690.683C919 816.779 816.779 919 690.683 919H228.317C102.221 919 0 816.779 0 690.683V228.317Z" fill="#121212"/>
<path d="M282.507 325.108C257.48 325.108 240.795 316.766 240.795 304.253H211C211 332.854 239.603 351.921 282.507 351.921C328.987 351.921 354.014 334.939 354.014 303.359C354.014 272.971 333.158 259.564 283.997 259.564C255.692 259.564 243.774 255.095 243.774 243.774C243.774 230.666 257.182 223.813 282.507 223.813C305.747 223.813 321.24 232.155 321.24 244.668H351.035C351.035 216.067 323.624 197 282.507 197C237.815 197 213.979 213.386 213.979 243.774C213.979 273.865 234.24 286.378 281.315 286.378C311.11 286.378 324.22 291.442 324.22 303.359C324.22 317.362 309.62 325.108 282.507 325.108Z" fill="#DDDDDD"/>
<path d="M252.753 616.237C252.753 604.617 262.585 595.382 281.058 595.382C299.531 595.382 309.363 601.638 309.363 613.257C309.363 621.897 302.51 626.962 278.972 636.198C240.239 651.392 218.489 673.736 218.489 698.166V719.021H343.627V692.207H252.753C252.753 680.886 267.948 670.459 290.294 661.819C327.538 647.221 340.647 634.708 340.647 613.257C340.647 584.954 317.706 567.079 281.058 567.079C242.623 567.079 221.469 586.444 221.469 616.237H252.753Z" fill="#DDDDDD"/>
<path d="M594.78 261.054V226.793H708V199.979H564.986V348.942H594.78V287.867H678.205V261.054H594.78Z" fill="#DDDDDD"/>
<path d="M634.031 693.697C613.473 693.697 602.747 687.441 602.747 675.822H571.463C571.463 705.614 593.511 722 634.031 722C674.254 722 696.6 705.614 696.6 675.822C696.6 661.223 689.747 650.2 676.34 643.646C686.768 636.793 692.131 626.664 692.131 613.257C692.131 583.465 670.977 567.079 632.542 567.079C594.107 567.079 572.952 583.465 572.952 613.257H604.237C604.237 601.638 614.069 595.382 632.542 595.382C651.014 595.382 660.847 601.638 660.847 613.257C660.847 624.876 651.61 631.133 634.031 631.133H611.685V657.946H634.031C654.59 657.946 665.316 664.202 665.316 675.822C665.316 687.441 654.292 693.697 634.031 693.697Z" fill="#DDDDDD"/>
</svg>
