<svg width="919" height="919" viewBox="0 0 919 919" fill="none" xmlns="http://www.w3.org/2000/svg">
<g clip-path="url(#clip0_2321_14)">
<path d="M0 228.317C0 102.221 102.221 0 228.317 0H690.683C816.779 0 919 102.221 919 228.317V690.683C919 816.779 816.779 919 690.683 919H228.317C102.221 919 0 816.779 0 690.683V228.317Z" fill="#171717"/>
<path d="M281 356.25C241.276 356.25 214.792 342.95 214.792 323H167.5C167.5 368.6 212.9 399 281 399C354.776 399 394.5 371.925 394.5 321.575C394.5 273.125 361.396 251.75 283.365 251.75C238.438 251.75 219.521 244.624 219.521 226.575C219.521 205.676 240.803 194.75 281 194.75C317.888 194.75 342.479 208.05 342.479 228H389.772C389.772 182.4 346.263 152 281 152C210.062 152 172.228 178.125 172.228 226.575C172.228 274.551 204.388 294.501 279.108 294.501C326.4 294.501 347.209 302.575 347.209 321.575C347.209 343.901 324.035 356.25 281 356.25Z" fill="#DDDDDD"/>
<path d="M563.874 253.27V196.461H751.5V152H514.5V399H563.874V297.73H702.124V253.27H563.874Z" fill="#DDDDDD"/>
<path d="M252.31 600.589C252.31 581.776 268.181 566.824 298 566.824C327.819 566.824 343.69 576.952 343.69 595.764C343.69 609.753 332.628 617.953 294.633 632.906C232.109 657.506 197 693.682 197 733.235V767H399V723.587H252.31C252.31 705.258 276.838 688.376 312.909 674.388C373.029 650.753 394.19 630.494 394.19 595.764C394.19 549.94 357.158 521 298 521C235.958 521 201.81 552.353 201.81 600.589H252.31Z" fill="#DDDDDD"/>
<path d="M722 688.376C722 713.78 713.3 733.235 695.9 746.741C678.5 760.247 653.367 767 620.5 767C587.311 767 562.017 760.569 544.617 747.706C527.539 734.843 519 716.353 519 692.235H569.75C569.75 711.529 586.667 721.176 620.5 721.176C654.333 721.176 671.25 710.243 671.25 688.376C671.25 666.831 654.333 656.059 620.5 656.059H523.833V521H705.083V564.412H572.167V612.647H620.5C653.367 612.647 678.5 619.239 695.9 632.424C713.3 645.286 722 663.937 722 688.376Z" fill="#DDDDDD"/>
</g>
<defs>
<clipPath id="clip0_2321_14">
<rect width="919" height="919" fill="white"/>
</clipPath>
</defs>
</svg>
