<svg xmlns="http://www.w3.org/2000/svg" fill="none" viewBox="0 0 67 19" class="styles_icon__x_9Ga">
    <path fill="currentColor"
        d="M0 9.5c0 4.97 2.565 9 5.729 9s5.729-4.03 5.729-9zM18 9.5c0-4.97-2.565-9-5.729-9s-5.729 4.03-5.729 9zM28.04 16.66q-1.58 0-2.78-.6a4.7 4.7 0 0 1-1.88-1.7q-.68-1.1-.74-2.56h2.54q.1 1.18.84 1.88.76.7 2.02.7 1.16 0 1.84-.48.7-.48.7-1.38 0-.62-.38-.98a2.65 2.65 0 0 0-.98-.6q-.58-.22-1.6-.48-1.44-.36-2.36-.74-.9-.38-1.56-1.22-.64-.84-.64-2.26 0-1.14.6-2.02.62-.9 1.72-1.38 1.1-.5 2.5-.5 1.46 0 2.58.54 1.14.52 1.78 1.5.66.98.72 2.28h-2.52q-.08-.92-.78-1.48-.68-.56-1.78-.56-1.04 0-1.64.44t-.6 1.18q0 .62.38 1.02.4.38.98.6.6.2 1.66.44 1.46.34 2.36.7.92.36 1.58 1.2.66.82.66 2.28 0 1.28-.66 2.22t-1.84 1.46q-1.18.5-2.72.5m15.554-.16h-2.44v-1.56a3 3 0 0 1-1.24 1.28q-.82.44-1.9.44-1.12 0-1.98-.5-.84-.5-1.32-1.4-.46-.92-.46-2.1V6.42h2.46v5.72q0 1.04.58 1.7.58.64 1.52.64.68 0 1.2-.32.54-.34.84-.92t.3-1.32v-5.5h2.44zm1.698-10.08h2.46v1.56a2.8 2.8 0 0 1 1.22-1.26q.84-.46 1.92-.46 1.1 0 1.96.5a3.3 3.3 0 0 1 1.32 1.42q.46.9.46 2.08v6.24h-2.44v-5.72q0-1.04-.6-1.68-.58-.66-1.52-.66-.66 0-1.2.34-.52.32-.82.9t-.3 1.32v5.5h-2.46zm15.6 10.24q-1.52 0-2.72-.68a4.94 4.94 0 0 1-1.88-1.86q-.68-1.18-.68-2.66t.68-2.66a4.94 4.94 0 0 1 1.88-1.86q1.2-.68 2.72-.68 1.5 0 2.7.68a4.94 4.94 0 0 1 1.88 1.86q.679 1.18.68 2.66-.001 1.48-.68 2.66a4.94 4.94 0 0 1-1.88 1.86q-1.2.68-2.7.68m0-2.12q.819 0 1.44-.38.639-.4.98-1.1.36-.7.36-1.6t-.36-1.6a2.5 2.5 0 0 0-.98-1.08 2.66 2.66 0 0 0-1.44-.4q-.821 0-1.46.4-.641.38-1 1.08-.341.7-.34 1.6-.001.9.34 1.6.359.7 1 1.1.639.38 1.46.38"></path>
</svg>